PathFileType	4	(X/Y/Z)	 s09c0303.trc
DataRate	CameraRate	NumFrames	NumMarkers	Units	OrigDataRate	OrigDataStartFrame	OrigNumFrames
200	200	4	50	mm	200	1751	2000
Frame#	Time	racr			lacr			c7			jug			rlel			rdr			llel			ldr			s2			lic			ric			lasi			rasi			rpsi			lpsi			rgt			lgt			rth1			rth2			rth3			rth4			rlfc			rmfc			rsh1			rsh2			rsh3			rsh4			rlmal			rmmal			rcal			rtoe			rmt5			lth1			lth2			lth4			lth3			llfc			lmfc			llmal			lmmal			lcal			lmt5			lsh1			lsh2			lsh3			lsh4			ltoe			SBIKE			LBIKE			RBIKE			
		X1	Y1	Z1	X2	Y2	Z2	X3	Y3	Z3	X4	Y4	Z4	X5	Y5	Z5	X6	Y6	Z6	X7	Y7	Z7	X8	Y8	Z8	X9	Y9	Z9	X10	Y10	Z10	X11	Y11	Z11	X12	Y12	Z12	X13	Y13	Z13	X14	Y14	Z14	X15	Y15	Z15	X16	Y16	Z16	X17	Y17	Z17	X18	Y18	Z18	X19	Y19	Z19	X20	Y20	Z20	X21	Y21	Z21	X22	Y22	Z22	X23	Y23	Z23	X24	Y24	Z24	X25	Y25	Z25	X26	Y26	Z26	X27	Y27	Z27	X28	Y28	Z28	X29	Y29	Z29	X30	Y30	Z30	X31	Y31	Z31	X32	Y32	Z32	X33	Y33	Z33	X34	Y34	Z34	X35	Y35	Z35	X36	Y36	Z36	X37	Y37	Z37	X38	Y38	Z38	X39	Y39	Z39	X40	Y40	Z40	X41	Y41	Z41	X42	Y42	Z42	X43	Y43	Z43	X44	Y44	Z44	X45	Y45	Z45	X46	Y46	Z46	X47	Y47	Z47	X48	Y48	Z48	X49	Y49	Z49	X50	Y50	Z50	
1751	8.7550	802.283781	1171.329727	-74.124750	759.456918	1205.508948	-443.625009	802.548152	1267.469362	-257.580551	781.962408	1133.822857	-268.093106	600.052845	1054.750237	45.836029	722.756520	881.290670	-46.383426	556.202073	1036.620777	-542.776555	708.559432	878.900928	-442.173154	304.626759	1176.901096	-230.490852	438.308557	1149.061353	-378.948253	434.622327	1119.630640	-78.964284	457.914141	1086.275459	-360.686849	463.868919	1058.967381	-102.607097	339.936887	1191.204799	-158.637488	342.262544	1209.211135	-275.519757	361.272078	984.329651	-51.992829	390.533339	1040.038211	-428.452045	395.883036	852.621600	-58.959674	435.735957	774.689956	-68.710667	425.118059	687.364390	-82.918960	466.680095	780.969037	-87.715666	435.911910	597.788293	-110.573510	409.294098	578.673349	-202.848226	378.271729	512.477912	-72.465311	371.380500	423.391820	-83.512214	322.256401	351.277960	-80.289809	395.726705	417.636131	-114.499056	282.276733	253.162175	-75.420801	285.141297	264.886313	-151.859821	202.412640	244.310983	-109.572027	448.056264	145.546304	-132.991675	368.218615	156.058174	-62.441024	480.430053	934.068520	-430.012144	551.396966	889.717882	-417.420688	575.298317	911.720481	-395.866563	594.119250	810.665908	-418.690987	619.238633	717.456059	-402.312722	617.553700	698.451403	-302.038661	274.666799	599.328082	-416.239883	291.482134	591.085808	-342.191337	207.251228	637.283655	-373.834043	245.739720	469.713158	-431.548475	528.032371	682.344035	-425.631896	455.263886	635.536171	-415.639275	366.400151	630.545702	-417.096760	464.899676	612.700293	-384.923885	318.295187	403.523986	-360.509285	-64.071365	851.567468	-237.803397	20.997808	85.354828	-442.045175	21.174617	84.105224	-43.622298	
1752	8.7600	804.853146	1170.882162	-79.373542	756.814418	1203.831188	-448.239971	801.845687	1266.172417	-262.816526	781.609276	1132.774148	-272.423056	603.683778	1056.815358	44.455423	723.434723	881.329986	-47.063378	552.908637	1033.506580	-543.949118	707.713197	878.748294	-442.591886	303.657284	1174.935003	-225.362057	436.209794	1149.570884	-378.115633	437.880006	1116.324437	-78.202882	456.643720	1086.318220	-361.101822	465.576773	1056.138416	-103.565337	340.320706	1188.302136	-161.578957	341.720002	1207.844468	-271.792833	363.545741	981.909388	-50.272795	388.295971	1041.590247	-426.567240	394.871947	850.704827	-58.344357	432.380801	771.731878	-68.490930	419.759566	684.775721	-82.820923	463.325074	777.376901	-88.504669	428.535432	594.677743	-111.366641	400.175017	576.550806	-203.220085	370.822172	509.984885	-72.589512	364.131028	421.142276	-83.380163	314.794964	348.829627	-80.191138	387.628453	415.180120	-115.521879	274.224105	251.049630	-75.354952	277.036800	262.676836	-151.501573	194.654208	243.630844	-109.514751	438.163591	139.992229	-132.974057	358.565948	152.060960	-62.398928	481.671046	937.054775	-429.690863	553.501128	894.565238	-417.603936	575.591513	916.543777	-396.650623	598.541855	816.654346	-418.856045	626.633773	723.886357	-402.509819	625.979921	704.004897	-303.624418	283.430329	603.048834	-416.121341	299.833816	595.124241	-342.443900	214.234964	640.285373	-373.759414	256.135608	473.518756	-431.679505	536.221549	688.203714	-425.247201	463.648747	641.160346	-415.399440	374.782172	635.739303	-416.971894	473.373674	618.224848	-384.848597	328.762469	407.555124	-359.069521	-64.076466	851.558633	-237.833387	20.989196	85.366507	-442.043937	21.151946	84.117136	-43.655646	
1753	8.7650	807.381880	1170.191878	-84.549140	754.138841	1201.966369	-452.939312	801.228283	1264.773447	-267.841247	781.175756	1131.713591	-276.762388	607.163815	1058.934607	42.928083	724.113148	881.461595	-47.623293	549.196382	1030.231169	-544.053457	707.048670	878.598087	-442.955541	304.636016	1173.557856	-222.050393	434.077754	1150.132670	-377.317135	440.843425	1113.049227	-77.688573	455.429944	1086.327488	-361.474745	467.328051	1053.349617	-104.673695	343.150481	1185.194643	-160.295152	341.227874	1206.897701	-267.935853	366.076414	979.757040	-48.949686	386.068104	1042.841393	-424.472282	393.876033	849.028918	-57.876740	429.703762	768.854281	-68.484708	414.738468	682.455895	-82.394578	460.056959	774.044284	-89.249205	421.447802	592.245242	-111.286084	391.631968	574.888886	-203.306124	363.663452	508.049928	-72.495817	356.744006	419.108177	-83.212685	307.249088	346.939603	-79.869470	379.951215	413.316225	-115.673338	266.140071	249.802183	-75.032566	269.158718	261.086351	-151.169029	186.738163	243.939519	-109.280420	428.132404	135.118032	-132.971377	348.746073	148.764438	-62.353387	482.700115	939.978318	-429.124474	555.808511	899.064939	-417.079678	577.205590	921.849781	-396.715070	602.491541	822.630785	-419.289013	633.743178	730.512530	-402.592863	634.012739	710.129187	-304.536395	291.909543	606.074136	-416.051788	307.793851	598.860911	-342.371943	221.057361	642.716919	-373.952598	266.629863	476.607312	-432.003194	544.364805	694.108810	-424.591200	471.895386	646.609191	-415.362281	383.102138	640.608003	-416.896618	481.619843	623.572725	-384.898732	340.067702	411.962898	-359.113896	-64.126397	851.490013	-237.797880	20.965760	85.329402	-442.048139	21.138038	84.090903	-43.647603	
1754	8.7700	809.535429	1170.015702	-89.778630	751.482813	1199.841366	-457.646039	800.486671	1263.470396	-272.903903	780.698778	1130.560105	-280.953647	610.293519	1060.919659	41.263052	724.716989	881.567550	-48.143346	545.557542	1027.056437	-543.907829	706.294951	877.148736	-442.024855	304.973367	1172.064785	-218.162903	431.935045	1150.736415	-376.572248	443.992794	1110.116885	-77.441658	454.288495	1086.295681	-361.784954	469.063725	1050.745920	-105.801419	344.135007	1183.898988	-156.516219	340.772978	1206.089134	-264.241164	368.810007	978.012131	-47.812908	383.604326	1044.887111	-423.436040	393.077981	847.588395	-57.290819	426.926190	766.743019	-68.042562	410.168521	680.532811	-81.674256	457.188744	771.167466	-89.587206	414.698283	590.480474	-111.060934	383.717912	573.344914	-203.197414	356.833805	506.706465	-72.153802	349.509132	417.900006	-82.857106	299.770728	345.906699	-79.364539	372.553879	411.973149	-115.457264	257.777734	248.921259	-74.775985	261.050874	259.997239	-150.611878	178.982752	244.508992	-109.008419	417.918096	130.706545	-132.964670	338.866970	145.993215	-62.261095	483.106503	943.053703	-428.826944	556.851041	904.608658	-417.480052	578.406373	927.226204	-396.626956	606.229744	828.865739	-419.371547	640.453160	737.434502	-402.797655	641.599582	716.358089	-305.359628	299.969189	608.363410	-416.062023	314.561927	601.581539	-342.608874	227.652931	644.112274	-373.963288	277.305590	479.045167	-432.319119	551.997397	700.196561	-424.328822	479.982890	651.950116	-415.438085	391.238964	645.087800	-416.913509	489.881110	628.813300	-385.300500	351.350573	415.816391	-359.138122	-64.190890	851.477777	-237.859450	20.968147	85.283690	-442.065985	21.137303	84.080473	-43.650995	
